<?xml version="1.0" standalone="no"?>
<!DOCTYPE svg PUBLIC "-//W3C//DTD SVG 20010904//EN"
 "http://www.w3.org/TR/2001/REC-SVG-20010904/DTD/svg10.dtd">
<svg version="1.0" xmlns="http://www.w3.org/2000/svg"
 width="512.000000pt" height="512.000000pt" viewBox="0 0 512.000000 512.000000"
 preserveAspectRatio="xMidYMid meet">
<metadata>
Created by potrace 1.11, written by Peter Selinger 2001-2013
</metadata>
<g transform="translate(0.000000,512.000000) scale(0.100000,-0.100000)"
fill="#000000" stroke="none">
<path d="M0 2560 l0 -2560 2560 0 2560 0 0 2560 0 2560 -2560 0 -2560 0 0
-2560z m2712 1420 c551 -113 1031 -574 1174 -1128 80 -308 5 -590 -199 -753
l-52 -41 -7 120 c-16 284 -90 518 -232 731 -164 247 -405 432 -676 521 -121
39 -137 38 -30 -3 172 -65 323 -168 462 -315 231 -244 359 -549 375 -897 7
-173 -8 -290 -58 -440 -67 -202 -153 -340 -292 -471 -93 -87 -155 -128 -275
-180 -309 -134 -832 -100 -1182 76 -299 150 -560 449 -684 781 -59 160 -80
301 -80 529 1 171 4 210 27 321 66 315 192 547 409 755 231 220 563 373 898
414 106 13 307 3 422 -20z"/>
</g>
</svg>
